<svg xmlns="http://www.w3.org/2000/svg" width="944" height="1088" viewBox="0 0 944 1088" version="1.1"><path d="M -0 544.001 L -0 1088.002 472.250 1087.751 L 944.500 1087.500 944.751 543.750 L 945.002 0 472.501 0 L 0 0 -0 544.001 M 0.496 544.500 C 0.496 843.700, 0.610 965.951, 0.750 816.168 C 0.889 666.385, 0.889 421.585, 0.750 272.168 C 0.610 122.751, 0.496 245.300, 0.496 544.500 M 440.826 171.970 C 426.136 175.068, 414.980 180.127, 388.250 195.812 C 368.620 207.330, 353.675 215.984, 318 236.487 C 270.912 263.550, 256 272.330, 256 272.990 C 256 273.305, 258.137 274.186, 260.750 274.947 C 270.874 277.896, 285.991 283.054, 297 287.316 C 319.549 296.045, 327.728 299.582, 345.015 308.080 C 445.373 357.414, 527.150 431.250, 584.431 524.247 L 589.203 531.994 594.852 531.247 C 597.958 530.836, 612.200 530.516, 626.500 530.536 C 648.360 530.566, 654.920 530.936, 667.695 532.858 C 688.218 535.946, 716.078 542.678, 728 547.430 C 729.925 548.197, 736.900 550.949, 743.500 553.545 C 771.333 564.494, 800.777 581.399, 825.750 600.767 L 834 607.166 834 511.990 C 834 420.222, 833.927 416.457, 831.966 406.833 C 828.085 387.789, 816.970 367.298, 802.842 353.144 C 793.513 343.797, 787.521 339.567, 766.500 327.488 C 757.150 322.116, 746.489 315.991, 742.809 313.876 C 739.130 311.762, 734.630 309.195, 732.809 308.170 C 730.989 307.146, 719.150 300.329, 706.500 293.020 C 693.850 285.712, 658.750 265.452, 628.500 247.998 C 598.250 230.544, 563.600 210.525, 551.500 203.511 C 506.562 177.462, 500.090 174.421, 483.377 171.507 C 471.547 169.444, 451.785 169.659, 440.826 171.970 M 170.204 321.763 C 154.004 330.224, 140.681 338.087, 133.950 343.158 C 112.968 358.969, 97.904 383.683, 92.790 410.687 C 91.768 416.084, 91.500 453.042, 91.500 588.500 C 91.500 771.950, 91.237 762.073, 96.590 779.333 C 101.721 795.873, 111.263 811.177, 124.171 823.567 C 134.286 833.276, 137.087 835.233, 158.315 847.420 C 167.492 852.689, 182.537 861.344, 191.750 866.653 C 232.126 889.922, 248.927 899.575, 255 902.993 C 261.421 906.606, 294.925 925.933, 308.500 933.853 C 316.518 938.532, 316.895 938.243, 314.556 929.216 C 308.639 906.382, 305.408 860.049, 307.950 834.500 C 308.442 829.550, 309.127 822.575, 309.472 819 L 310.099 812.500 305.300 809.540 C 282.228 795.312, 268.166 764.705, 271.987 737.029 C 275.624 710.679, 290.375 689.865, 313.500 678.453 C 326.385 672.094, 332.216 670.738, 347.736 670.487 L 360.972 670.273 368.118 660.408 C 403.976 610.900, 453.639 572.842, 511.636 550.426 C 518.154 547.907, 523.628 545.706, 523.799 545.534 C 524.220 545.113, 508.481 522.810, 499.288 510.800 C 480.854 486.719, 451.946 456.217, 428.500 436.110 C 358.661 376.214, 274.931 336.630, 185.204 321.090 L 174.908 319.307 170.204 321.763 M 611.601 572.837 C 611.213 573.464, 611.875 576.120, 613.072 578.738 C 633.352 623.119, 647.323 671.155, 653.867 719 C 657.685 746.914, 658.453 759.032, 658.370 790 C 658.258 831.315, 655.326 860.152, 647.136 900.475 C 645.066 910.664, 643.627 918.997, 643.937 918.993 C 644.246 918.988, 647.875 917.045, 652 914.674 C 671.177 903.650, 694.534 890.140, 705 884.018 C 711.325 880.319, 724.150 872.875, 733.500 867.477 C 742.850 862.080, 756.493 854.139, 763.818 849.832 C 771.143 845.524, 777.351 842, 777.613 842 C 779.269 842, 794.414 830.651, 800.599 824.776 C 817.450 808.769, 828.274 788.849, 832.459 766.140 C 833.704 759.383, 834 748.900, 834 711.503 L 834 665.226 822.685 654.363 C 789.015 622.038, 752.010 599.742, 708.500 585.566 C 696.814 581.759, 673.169 576.369, 660.311 574.582 C 645.156 572.475, 612.546 571.307, 611.601 572.837 M 536.500 587.438 C 531.550 589.262, 525.623 591.452, 523.328 592.305 C 521.034 593.158, 514.342 596.138, 508.458 598.928 C 502.573 601.718, 497.624 604, 497.461 604 C 496.875 604, 476.910 615.965, 472.251 619.108 C 456.912 629.455, 435.488 647.369, 424.381 659.136 C 417.436 666.494, 401.842 685.366, 400.718 687.775 C 399.786 689.773, 400.179 690.566, 403.940 694.275 C 414.749 704.936, 421.716 719.912, 424.060 737.523 C 427.303 761.896, 416.119 789.441, 396.592 805.172 C 386.418 813.369, 371.280 820.200, 360 821.685 C 357.525 822.011, 354.773 822.648, 353.884 823.102 C 349.860 825.156, 348.167 874.145, 351.399 895 C 354.855 917.300, 360.878 936.015, 369.260 950.500 C 383.858 975.727, 408.267 994.346, 436.500 1001.792 C 489.456 1015.759, 542.739 990.816, 570.639 939 C 583.524 915.068, 592.403 880.933, 597.168 837 C 599.034 819.795, 598.716 769.145, 596.622 750 C 590.301 692.233, 576.761 644.814, 552.290 594.750 C 549.400 588.837, 546.690 584.028, 546.268 584.061 C 545.845 584.095, 541.450 585.615, 536.500 587.438" stroke="none" fill="#fbfbfb" fill-rule="evenodd"/><path d="M 440.826 171.970 C 426.136 175.068, 414.980 180.127, 388.250 195.812 C 368.620 207.330, 353.675 215.984, 318 236.487 C 270.912 263.550, 256 272.330, 256 272.990 C 256 273.305, 258.137 274.186, 260.750 274.947 C 270.874 277.896, 285.991 283.054, 297 287.316 C 319.549 296.045, 327.728 299.582, 345.015 308.080 C 445.373 357.414, 527.150 431.250, 584.431 524.247 L 589.203 531.994 594.852 531.247 C 597.958 530.836, 612.200 530.516, 626.500 530.536 C 648.360 530.566, 654.920 530.936, 667.695 532.858 C 688.218 535.946, 716.078 542.678, 728 547.430 C 729.925 548.197, 736.900 550.949, 743.500 553.545 C 771.333 564.494, 800.777 581.399, 825.750 600.767 L 834 607.166 834 511.990 C 834 420.222, 833.927 416.457, 831.966 406.833 C 828.085 387.789, 816.970 367.298, 802.842 353.144 C 793.513 343.797, 787.521 339.567, 766.500 327.488 C 757.150 322.116, 746.489 315.991, 742.809 313.876 C 739.130 311.762, 734.630 309.195, 732.809 308.170 C 730.989 307.146, 719.150 300.329, 706.500 293.020 C 693.850 285.712, 658.750 265.452, 628.500 247.998 C 598.250 230.544, 563.600 210.525, 551.500 203.511 C 506.562 177.462, 500.090 174.421, 483.377 171.507 C 471.547 169.444, 451.785 169.659, 440.826 171.970 M 170.204 321.763 C 154.004 330.224, 140.681 338.087, 133.950 343.158 C 112.968 358.969, 97.904 383.683, 92.790 410.687 C 91.768 416.084, 91.500 453.042, 91.500 588.500 C 91.500 771.950, 91.237 762.073, 96.590 779.333 C 101.721 795.873, 111.263 811.177, 124.171 823.567 C 134.286 833.276, 137.087 835.233, 158.315 847.420 C 167.492 852.689, 182.537 861.344, 191.750 866.653 C 232.126 889.922, 248.927 899.575, 255 902.993 C 261.421 906.606, 294.925 925.933, 308.500 933.853 C 316.518 938.532, 316.895 938.243, 314.556 929.216 C 308.639 906.382, 305.408 860.049, 307.950 834.500 C 308.442 829.550, 309.127 822.575, 309.472 819 L 310.099 812.500 305.300 809.540 C 282.228 795.312, 268.166 764.705, 271.987 737.029 C 275.624 710.679, 290.375 689.865, 313.500 678.453 C 326.385 672.094, 332.216 670.738, 347.736 670.487 L 360.972 670.273 368.118 660.408 C 403.976 610.900, 453.639 572.842, 511.636 550.426 C 518.154 547.907, 523.628 545.706, 523.799 545.534 C 524.220 545.113, 508.481 522.810, 499.288 510.800 C 480.854 486.719, 451.946 456.217, 428.500 436.110 C 358.661 376.214, 274.931 336.630, 185.204 321.090 L 174.908 319.307 170.204 321.763 M 611.601 572.837 C 611.213 573.464, 611.875 576.120, 613.072 578.738 C 633.352 623.119, 647.323 671.155, 653.867 719 C 657.685 746.914, 658.453 759.032, 658.370 790 C 658.258 831.315, 655.326 860.152, 647.136 900.475 C 645.066 910.664, 643.627 918.997, 643.937 918.993 C 644.246 918.988, 647.875 917.045, 652 914.674 C 671.177 903.650, 694.534 890.140, 705 884.018 C 711.325 880.319, 724.150 872.875, 733.500 867.477 C 742.850 862.080, 756.493 854.139, 763.818 849.832 C 771.143 845.524, 777.351 842, 777.613 842 C 779.269 842, 794.414 830.651, 800.599 824.776 C 817.450 808.769, 828.274 788.849, 832.459 766.140 C 833.704 759.383, 834 748.900, 834 711.503 L 834 665.226 822.685 654.363 C 789.015 622.038, 752.010 599.742, 708.500 585.566 C 696.814 581.759, 673.169 576.369, 660.311 574.582 C 645.156 572.475, 612.546 571.307, 611.601 572.837 M 536.500 587.438 C 531.550 589.262, 525.623 591.452, 523.328 592.305 C 521.034 593.158, 514.342 596.138, 508.458 598.928 C 502.573 601.718, 497.624 604, 497.461 604 C 496.875 604, 476.910 615.965, 472.251 619.108 C 456.912 629.455, 435.488 647.369, 424.381 659.136 C 417.436 666.494, 401.842 685.366, 400.718 687.775 C 399.786 689.773, 400.179 690.566, 403.940 694.275 C 414.749 704.936, 421.716 719.912, 424.060 737.523 C 427.303 761.896, 416.119 789.441, 396.592 805.172 C 386.418 813.369, 371.280 820.200, 360 821.685 C 357.525 822.011, 354.773 822.648, 353.884 823.102 C 349.860 825.156, 348.167 874.145, 351.399 895 C 354.855 917.300, 360.878 936.015, 369.260 950.500 C 383.858 975.727, 408.267 994.346, 436.500 1001.792 C 489.456 1015.759, 542.739 990.816, 570.639 939 C 583.524 915.068, 592.403 880.933, 597.168 837 C 599.034 819.795, 598.716 769.145, 596.622 750 C 590.301 692.233, 576.761 644.814, 552.290 594.750 C 549.400 588.837, 546.690 584.028, 546.268 584.061 C 545.845 584.095, 541.450 585.615, 536.500 587.438" stroke="none" fill="#1c5dba" fill-rule="evenodd"/></svg>